solid cradle
  facet normal 0.000000e+00 0.000000e+00 -1.000000e+00
    outer loop
      vertex 3.000000e+00 1.225000e+01 0.000000e+00
      vertex 7.700000e+01 1.225000e+01 0.000000e+00
      vertex 7.700000e+01 -1.225000e+01 0.000000e+00
    endloop
  endfacet
  facet normal 0.000000e+00 0.000000e+00 -1.000000e+00
    outer loop
      vertex 3.000000e+00 1.225000e+01 0.000000e+00
      vertex 7.700000e+01 -1.225000e+01 0.000000e+00
      vertex 3.000000e+00 -1.225000e+01 0.000000e+00
    endloop
  endfacet
  facet normal 0.000000e+00 0.000000e+00 1.000000e+00
    outer loop
      vertex 3.000000e+00 -1.225000e+01 4.000000e+00
      vertex 7.700000e+01 -1.225000e+01 4.000000e+00
      vertex 7.700000e+01 1.225000e+01 4.000000e+00
    endloop
  endfacet
  facet normal 0.000000e+00 0.000000e+00 1.000000e+00
    outer loop
      vertex 3.000000e+00 -1.225000e+01 4.000000e+00
      vertex 7.700000e+01 1.225000e+01 4.000000e+00
      vertex 3.000000e+00 1.225000e+01 4.000000e+00
    endloop
  endfacet
  facet normal 0.000000e+00 -1.000000e+00 0.000000e+00
    outer loop
      vertex 3.000000e+00 -1.225000e+01 0.000000e+00
      vertex 7.700000e+01 -1.225000e+01 0.000000e+00
      vertex 7.700000e+01 -1.225000e+01 4.000000e+00
    endloop
  endfacet
  facet normal 0.000000e+00 -1.000000e+00 0.000000e+00
    outer loop
      vertex 3.000000e+00 -1.225000e+01 0.000000e+00
      vertex 7.700000e+01 -1.225000e+01 4.000000e+00
      vertex 3.000000e+00 -1.225000e+01 4.000000e+00
    endloop
  endfacet
  facet normal 1.000000e+00 0.000000e+00 0.000000e+00
    outer loop
      vertex 7.700000e+01 -1.225000e+01 0.000000e+00
      vertex 7.700000e+01 1.225000e+01 0.000000e+00
      vertex 7.700000e+01 1.225000e+01 4.000000e+00
    endloop
  endfacet
  facet normal 1.000000e+00 0.000000e+00 0.000000e+00
    outer loop
      vertex 7.700000e+01 -1.225000e+01 0.000000e+00
      vertex 7.700000e+01 1.225000e+01 4.000000e+00
      vertex 7.700000e+01 -1.225000e+01 4.000000e+00
    endloop
  endfacet
  facet normal 0.000000e+00 1.000000e+00 0.000000e+00
    outer loop
      vertex 7.700000e+01 1.225000e+01 0.000000e+00
      vertex 3.000000e+00 1.225000e+01 0.000000e+00
      vertex 3.000000e+00 1.225000e+01 4.000000e+00
    endloop
  endfacet
  facet normal 0.000000e+00 1.000000e+00 -0.000000e+00
    outer loop
      vertex 7.700000e+01 1.225000e+01 0.000000e+00
      vertex 3.000000e+00 1.225000e+01 4.000000e+00
      vertex 7.700000e+01 1.225000e+01 4.000000e+00
    endloop
  endfacet
  facet normal -1.000000e+00 0.000000e+00 0.000000e+00
    outer loop
      vertex 3.000000e+00 1.225000e+01 0.000000e+00
      vertex 3.000000e+00 -1.225000e+01 0.000000e+00
      vertex 3.000000e+00 -1.225000e+01 4.000000e+00
    endloop
  endfacet
  facet normal -1.000000e+00 0.000000e+00 0.000000e+00
    outer loop
      vertex 3.000000e+00 1.225000e+01 0.000000e+00
      vertex 3.000000e+00 -1.225000e+01 4.000000e+00
      vertex 3.000000e+00 1.225000e+01 4.000000e+00
    endloop
  endfacet
  facet normal 0.000000e+00 0.000000e+00 -1.000000e+00
    outer loop
      vertex 8.000000e+00 -7.250000e+00 4.000000e+00
      vertex 2.000000e+01 -7.250000e+00 4.000000e+00
      vertex 2.000000e+01 -1.225000e+01 4.000000e+00
    endloop
  endfacet
  facet normal 0.000000e+00 0.000000e+00 -1.000000e+00
    outer loop
      vertex 8.000000e+00 -7.250000e+00 4.000000e+00
      vertex 2.000000e+01 -1.225000e+01 4.000000e+00
      vertex 8.000000e+00 -1.225000e+01 4.000000e+00
    endloop
  endfacet
  facet normal 0.000000e+00 0.000000e+00 1.000000e+00
    outer loop
      vertex 8.000000e+00 -1.225000e+01 1.600000e+01
      vertex 2.000000e+01 -1.225000e+01 1.600000e+01
      vertex 2.000000e+01 -7.250000e+00 1.600000e+01
    endloop
  endfacet
  facet normal 0.000000e+00 0.000000e+00 1.000000e+00
    outer loop
      vertex 8.000000e+00 -1.225000e+01 1.600000e+01
      vertex 2.000000e+01 -7.250000e+00 1.600000e+01
      vertex 8.000000e+00 -7.250000e+00 1.600000e+01
    endloop
  endfacet
  facet normal 0.000000e+00 -1.000000e+00 0.000000e+00
    outer loop
      vertex 8.000000e+00 -1.225000e+01 4.000000e+00
      vertex 2.000000e+01 -1.225000e+01 4.000000e+00
      vertex 2.000000e+01 -1.225000e+01 1.600000e+01
    endloop
  endfacet
  facet normal 0.000000e+00 -1.000000e+00 0.000000e+00
    outer loop
      vertex 8.000000e+00 -1.225000e+01 4.000000e+00
      vertex 2.000000e+01 -1.225000e+01 1.600000e+01
      vertex 8.000000e+00 -1.225000e+01 1.600000e+01
    endloop
  endfacet
  facet normal 1.000000e+00 0.000000e+00 0.000000e+00
    outer loop
      vertex 2.000000e+01 -1.225000e+01 4.000000e+00
      vertex 2.000000e+01 -7.250000e+00 4.000000e+00
      vertex 2.000000e+01 -7.250000e+00 1.600000e+01
    endloop
  endfacet
  facet normal 1.000000e+00 0.000000e+00 0.000000e+00
    outer loop
      vertex 2.000000e+01 -1.225000e+01 4.000000e+00
      vertex 2.000000e+01 -7.250000e+00 1.600000e+01
      vertex 2.000000e+01 -1.225000e+01 1.600000e+01
    endloop
  endfacet
  facet normal 0.000000e+00 1.000000e+00 0.000000e+00
    outer loop
      vertex 2.000000e+01 -7.250000e+00 4.000000e+00
      vertex 8.000000e+00 -7.250000e+00 4.000000e+00
      vertex 8.000000e+00 -7.250000e+00 1.600000e+01
    endloop
  endfacet
  facet normal 0.000000e+00 1.000000e+00 -0.000000e+00
    outer loop
      vertex 2.000000e+01 -7.250000e+00 4.000000e+00
      vertex 8.000000e+00 -7.250000e+00 1.600000e+01
      vertex 2.000000e+01 -7.250000e+00 1.600000e+01
    endloop
  endfacet
  facet normal -1.000000e+00 0.000000e+00 0.000000e+00
    outer loop
      vertex 8.000000e+00 -7.250000e+00 4.000000e+00
      vertex 8.000000e+00 -1.225000e+01 4.000000e+00
      vertex 8.000000e+00 -1.225000e+01 1.600000e+01
    endloop
  endfacet
  facet normal -1.000000e+00 0.000000e+00 0.000000e+00
    outer loop
      vertex 8.000000e+00 -7.250000e+00 4.000000e+00
      vertex 8.000000e+00 -1.225000e+01 1.600000e+01
      vertex 8.000000e+00 -7.250000e+00 1.600000e+01
    endloop
  endfacet
  facet normal 0.000000e+00 0.000000e+00 -1.000000e+00
    outer loop
      vertex 8.000000e+00 1.225000e+01 4.000000e+00
      vertex 2.000000e+01 1.225000e+01 4.000000e+00
      vertex 2.000000e+01 7.250000e+00 4.000000e+00
    endloop
  endfacet
  facet normal 0.000000e+00 0.000000e+00 -1.000000e+00
    outer loop
      vertex 8.000000e+00 1.225000e+01 4.000000e+00
      vertex 2.000000e+01 7.250000e+00 4.000000e+00
      vertex 8.000000e+00 7.250000e+00 4.000000e+00
    endloop
  endfacet
  facet normal 0.000000e+00 0.000000e+00 1.000000e+00
    outer loop
      vertex 8.000000e+00 7.250000e+00 1.600000e+01
      vertex 2.000000e+01 7.250000e+00 1.600000e+01
      vertex 2.000000e+01 1.225000e+01 1.600000e+01
    endloop
  endfacet
  facet normal 0.000000e+00 0.000000e+00 1.000000e+00
    outer loop
      vertex 8.000000e+00 7.250000e+00 1.600000e+01
      vertex 2.000000e+01 1.225000e+01 1.600000e+01
      vertex 8.000000e+00 1.225000e+01 1.600000e+01
    endloop
  endfacet
  facet normal 0.000000e+00 -1.000000e+00 0.000000e+00
    outer loop
      vertex 8.000000e+00 7.250000e+00 4.000000e+00
      vertex 2.000000e+01 7.250000e+00 4.000000e+00
      vertex 2.000000e+01 7.250000e+00 1.600000e+01
    endloop
  endfacet
  facet normal 0.000000e+00 -1.000000e+00 0.000000e+00
    outer loop
      vertex 8.000000e+00 7.250000e+00 4.000000e+00
      vertex 2.000000e+01 7.250000e+00 1.600000e+01
      vertex 8.000000e+00 7.250000e+00 1.600000e+01
    endloop
  endfacet
  facet normal 1.000000e+00 0.000000e+00 0.000000e+00
    outer loop
      vertex 2.000000e+01 7.250000e+00 4.000000e+00
      vertex 2.000000e+01 1.225000e+01 4.000000e+00
      vertex 2.000000e+01 1.225000e+01 1.600000e+01
    endloop
  endfacet
  facet normal 1.000000e+00 0.000000e+00 0.000000e+00
    outer loop
      vertex 2.000000e+01 7.250000e+00 4.000000e+00
      vertex 2.000000e+01 1.225000e+01 1.600000e+01
      vertex 2.000000e+01 7.250000e+00 1.600000e+01
    endloop
  endfacet
  facet normal 0.000000e+00 1.000000e+00 0.000000e+00
    outer loop
      vertex 2.000000e+01 1.225000e+01 4.000000e+00
      vertex 8.000000e+00 1.225000e+01 4.000000e+00
      vertex 8.000000e+00 1.225000e+01 1.600000e+01
    endloop
  endfacet
  facet normal 0.000000e+00 1.000000e+00 -0.000000e+00
    outer loop
      vertex 2.000000e+01 1.225000e+01 4.000000e+00
      vertex 8.000000e+00 1.225000e+01 1.600000e+01
      vertex 2.000000e+01 1.225000e+01 1.600000e+01
    endloop
  endfacet
  facet normal -1.000000e+00 0.000000e+00 0.000000e+00
    outer loop
      vertex 8.000000e+00 1.225000e+01 4.000000e+00
      vertex 8.000000e+00 7.250000e+00 4.000000e+00
      vertex 8.000000e+00 7.250000e+00 1.600000e+01
    endloop
  endfacet
  facet normal -1.000000e+00 0.000000e+00 0.000000e+00
    outer loop
      vertex 8.000000e+00 1.225000e+01 4.000000e+00
      vertex 8.000000e+00 7.250000e+00 1.600000e+01
      vertex 8.000000e+00 1.225000e+01 1.600000e+01
    endloop
  endfacet
  facet normal 0.000000e+00 0.000000e+00 -1.000000e+00
    outer loop
      vertex 6.000000e+01 -7.250000e+00 4.000000e+00
      vertex 7.200000e+01 -7.250000e+00 4.000000e+00
      vertex 7.200000e+01 -1.225000e+01 4.000000e+00
    endloop
  endfacet
  facet normal 0.000000e+00 0.000000e+00 -1.000000e+00
    outer loop
      vertex 6.000000e+01 -7.250000e+00 4.000000e+00
      vertex 7.200000e+01 -1.225000e+01 4.000000e+00
      vertex 6.000000e+01 -1.225000e+01 4.000000e+00
    endloop
  endfacet
  facet normal 0.000000e+00 0.000000e+00 1.000000e+00
    outer loop
      vertex 6.000000e+01 -1.225000e+01 1.600000e+01
      vertex 7.200000e+01 -1.225000e+01 1.600000e+01
      vertex 7.200000e+01 -7.250000e+00 1.600000e+01
    endloop
  endfacet
  facet normal 0.000000e+00 0.000000e+00 1.000000e+00
    outer loop
      vertex 6.000000e+01 -1.225000e+01 1.600000e+01
      vertex 7.200000e+01 -7.250000e+00 1.600000e+01
      vertex 6.000000e+01 -7.250000e+00 1.600000e+01
    endloop
  endfacet
  facet normal 0.000000e+00 -1.000000e+00 0.000000e+00
    outer loop
      vertex 6.000000e+01 -1.225000e+01 4.000000e+00
      vertex 7.200000e+01 -1.225000e+01 4.000000e+00
      vertex 7.200000e+01 -1.225000e+01 1.600000e+01
    endloop
  endfacet
  facet normal 0.000000e+00 -1.000000e+00 0.000000e+00
    outer loop
      vertex 6.000000e+01 -1.225000e+01 4.000000e+00
      vertex 7.200000e+01 -1.225000e+01 1.600000e+01
      vertex 6.000000e+01 -1.225000e+01 1.600000e+01
    endloop
  endfacet
  facet normal 1.000000e+00 0.000000e+00 0.000000e+00
    outer loop
      vertex 7.200000e+01 -1.225000e+01 4.000000e+00
      vertex 7.200000e+01 -7.250000e+00 4.000000e+00
      vertex 7.200000e+01 -7.250000e+00 1.600000e+01
    endloop
  endfacet
  facet normal 1.000000e+00 0.000000e+00 0.000000e+00
    outer loop
      vertex 7.200000e+01 -1.225000e+01 4.000000e+00
      vertex 7.200000e+01 -7.250000e+00 1.600000e+01
      vertex 7.200000e+01 -1.225000e+01 1.600000e+01
    endloop
  endfacet
  facet normal 0.000000e+00 1.000000e+00 0.000000e+00
    outer loop
      vertex 7.200000e+01 -7.250000e+00 4.000000e+00
      vertex 6.000000e+01 -7.250000e+00 4.000000e+00
      vertex 6.000000e+01 -7.250000e+00 1.600000e+01
    endloop
  endfacet
  facet normal 0.000000e+00 1.000000e+00 -0.000000e+00
    outer loop
      vertex 7.200000e+01 -7.250000e+00 4.000000e+00
      vertex 6.000000e+01 -7.250000e+00 1.600000e+01
      vertex 7.200000e+01 -7.250000e+00 1.600000e+01
    endloop
  endfacet
  facet normal -1.000000e+00 0.000000e+00 0.000000e+00
    outer loop
      vertex 6.000000e+01 -7.250000e+00 4.000000e+00
      vertex 6.000000e+01 -1.225000e+01 4.000000e+00
      vertex 6.000000e+01 -1.225000e+01 1.600000e+01
    endloop
  endfacet
  facet normal -1.000000e+00 0.000000e+00 0.000000e+00
    outer loop
      vertex 6.000000e+01 -7.250000e+00 4.000000e+00
      vertex 6.000000e+01 -1.225000e+01 1.600000e+01
      vertex 6.000000e+01 -7.250000e+00 1.600000e+01
    endloop
  endfacet
  facet normal 0.000000e+00 0.000000e+00 -1.000000e+00
    outer loop
      vertex 6.000000e+01 1.225000e+01 4.000000e+00
      vertex 7.200000e+01 1.225000e+01 4.000000e+00
      vertex 7.200000e+01 7.250000e+00 4.000000e+00
    endloop
  endfacet
  facet normal 0.000000e+00 0.000000e+00 -1.000000e+00
    outer loop
      vertex 6.000000e+01 1.225000e+01 4.000000e+00
      vertex 7.200000e+01 7.250000e+00 4.000000e+00
      vertex 6.000000e+01 7.250000e+00 4.000000e+00
    endloop
  endfacet
  facet normal 0.000000e+00 0.000000e+00 1.000000e+00
    outer loop
      vertex 6.000000e+01 7.250000e+00 1.600000e+01
      vertex 7.200000e+01 7.250000e+00 1.600000e+01
      vertex 7.200000e+01 1.225000e+01 1.600000e+01
    endloop
  endfacet
  facet normal 0.000000e+00 0.000000e+00 1.000000e+00
    outer loop
      vertex 6.000000e+01 7.250000e+00 1.600000e+01
      vertex 7.200000e+01 1.225000e+01 1.600000e+01
      vertex 6.000000e+01 1.225000e+01 1.600000e+01
    endloop
  endfacet
  facet normal 0.000000e+00 -1.000000e+00 0.000000e+00
    outer loop
      vertex 6.000000e+01 7.250000e+00 4.000000e+00
      vertex 7.200000e+01 7.250000e+00 4.000000e+00
      vertex 7.200000e+01 7.250000e+00 1.600000e+01
    endloop
  endfacet
  facet normal 0.000000e+00 -1.000000e+00 0.000000e+00
    outer loop
      vertex 6.000000e+01 7.250000e+00 4.000000e+00
      vertex 7.200000e+01 7.250000e+00 1.600000e+01
      vertex 6.000000e+01 7.250000e+00 1.600000e+01
    endloop
  endfacet
  facet normal 1.000000e+00 0.000000e+00 0.000000e+00
    outer loop
      vertex 7.200000e+01 7.250000e+00 4.000000e+00
      vertex 7.200000e+01 1.225000e+01 4.000000e+00
      vertex 7.200000e+01 1.225000e+01 1.600000e+01
    endloop
  endfacet
  facet normal 1.000000e+00 0.000000e+00 0.000000e+00
    outer loop
      vertex 7.200000e+01 7.250000e+00 4.000000e+00
      vertex 7.200000e+01 1.225000e+01 1.600000e+01
      vertex 7.200000e+01 7.250000e+00 1.600000e+01
    endloop
  endfacet
  facet normal 0.000000e+00 1.000000e+00 0.000000e+00
    outer loop
      vertex 7.200000e+01 1.225000e+01 4.000000e+00
      vertex 6.000000e+01 1.225000e+01 4.000000e+00
      vertex 6.000000e+01 1.225000e+01 1.600000e+01
    endloop
  endfacet
  facet normal 0.000000e+00 1.000000e+00 -0.000000e+00
    outer loop
      vertex 7.200000e+01 1.225000e+01 4.000000e+00
      vertex 6.000000e+01 1.225000e+01 1.600000e+01
      vertex 7.200000e+01 1.225000e+01 1.600000e+01
    endloop
  endfacet
  facet normal -1.000000e+00 0.000000e+00 0.000000e+00
    outer loop
      vertex 6.000000e+01 1.225000e+01 4.000000e+00
      vertex 6.000000e+01 7.250000e+00 4.000000e+00
      vertex 6.000000e+01 7.250000e+00 1.600000e+01
    endloop
  endfacet
  facet normal -1.000000e+00 0.000000e+00 0.000000e+00
    outer loop
      vertex 6.000000e+01 1.225000e+01 4.000000e+00
      vertex 6.000000e+01 7.250000e+00 1.600000e+01
      vertex 6.000000e+01 1.225000e+01 1.600000e+01
    endloop
  endfacet
endsolid cradle
